<?xml version="1.0" encoding="UTF-8"?>
<svg id="Layer_1" xmlns="http://www.w3.org/2000/svg" xmlns:xlink="http://www.w3.org/1999/xlink" version="1.1" viewBox="0 0 600 600">
  <!-- Generator: Adobe Illustrator 30.1.0, SVG Export Plug-In . SVG Version: 2.1.1 Build 136)  -->
  <defs>
    <style>
      .st0 {
        fill: url(#linear-gradient1);
      }

      .st0, .st1 {
        stroke: #231f20;
        stroke-linecap: round;
        stroke-miterlimit: 10;
      }

      .st1 {
        fill: url(#linear-gradient);
      }
    </style>
    <linearGradient id="linear-gradient" x1="297.67" y1="78.54" x2="297.67" y2="434.3" gradientUnits="userSpaceOnUse">
      <stop offset="0" stop-color="#cce0f4"/>
      <stop offset=".06" stop-color="#c2dcf2"/>
      <stop offset=".17" stop-color="#a9d2ee"/>
      <stop offset=".31" stop-color="#7fc2e7"/>
      <stop offset=".46" stop-color="#46abdd"/>
      <stop offset=".57" stop-color="#1e9cd7"/>
      <stop offset=".87" stop-color="#0075be"/>
      <stop offset=".99" stop-color="#005b97"/>
    </linearGradient>
    <linearGradient id="linear-gradient1" x1="320.08" y1="78.54" x2="320.08" y2="434.3" xlink:href="#linear-gradient"/>
  </defs>
  <path class="st1" d="M214.75,306.66c62.3-51.49,139.94-84.02,220.1-93.66-7.09-9.86-15.44-18.89-24.84-26.8-15.24-12.85-32.94-22.78-51.83-29.13-6.28-2.11-23.13-2.97-26.69-8.62-5.42-8.59,7.08-20.92,12.53-25.88,12.35-11.26,24.7-22.51,37.05-33.77-20.64-1.38-41.69,8.31-54.07,24.88,1.37-8.39,2.74-16.78,4.1-25.17-11.4,10.21-21.03,22.39-28.34,35.83-6.29-14.52-10.28-30.04-11.78-45.79l-16.33,46.96c-13.03-15.29-33.21-24.2-53.29-23.53,8.67,6.55,16.33,14.41,22.7,23.21,4.63,6.39,15.51,20.53,15.02,28.83-.42,7.11-14.79,10.08-21.63,13.78-8.46,4.57-16.51,9.9-23.99,15.93-29.45,23.72-49.63,58.3-52.59,96.29-1.88,24.12,3.1,47.29,13.13,68.01,11.99-15.56,26.34-29.45,40.74-41.35Z"/>
  <path class="st0" d="M420.24,225.05c-38.71,6.22-76.66,17.86-112.17,34.49-34.52,16.17-67.62,36.92-95.92,62.56-11.74,10.63-23.23,22.6-32.88,35.79,26.01,44.52,75.89,75.56,129.47,76.39,77.45,1.2,152.15-60.88,152.14-142.61,0-24.83-7.28-48.67-19.92-69.43-6.96.78-13.89,1.72-20.73,2.82Z"/>
</svg>